<?xml version="1.0"?>
<svg width="640" height="480" xmlns="http://www.w3.org/2000/svg" xmlns:svg="http://www.w3.org/2000/svg" xmlns:xlink="http://www.w3.org/1999/xlink">
 <!-- Created with SVG-edit - https://github.com/SVG-Edit/svgedit-->
 <defs>
  <symbol height="480" id="svg_4" width="640" xmlns="http://www.w3.org/2000/svg" xmlns:svg="http://www.w3.org/2000/svg" xmlns:xlink="http://www.w3.org/1999/xlink">
   <!-- Created with SVG-edit - https://github.com/SVG-Edit/svgedit-->
   <defs>
    <symbol id="svg_3" viewBox="0 0 1080 566" xmlns="http://www.w3.org/2000/svg" xmlns:xlink="http://www.w3.org/1999/xlink">
     <g>
      <g transform="matrix(1,0,0,1,6.58797,-22.2503)">
       <path d="m401.697,126.795c0,-14.708 12.733,-26.65 28.416,-26.65c15.684,0 28.417,11.942 28.417,26.65c7.841,-12.738 25.235,-17.109 38.817,-9.755c13.583,7.354 18.243,23.666 10.402,36.404c13.582,-7.354 30.976,-2.984 38.817,9.754c7.842,12.737 3.182,29.049 -10.401,36.403c15.684,0 28.417,11.941 28.417,26.649c0,14.708 -12.733,26.649 -28.417,26.649c13.583,7.354 18.243,23.666 10.401,36.404c-7.841,12.737 -25.235,17.108 -38.817,9.754c7.841,12.737 3.181,29.049 -10.402,36.403c-13.582,7.354 -30.976,2.984 -38.817,-9.754c0,14.708 -12.733,26.649 -28.417,26.649c-15.683,0 -28.416,-11.941 -28.416,-26.649c-7.842,12.738 -25.236,17.108 -38.818,9.754c-13.583,-7.354 -18.243,-23.666 -10.401,-36.403c-13.583,7.354 -30.976,2.983 -38.818,-9.754c-7.842,-12.738 -3.181,-29.05 10.401,-36.404c-15.683,0 -28.417,-11.941 -28.417,-26.649c0,-14.708 12.734,-26.649 28.417,-26.649c-13.582,-7.354 -18.243,-23.666 -10.401,-36.403c7.842,-12.738 25.235,-17.108 38.818,-9.754c-7.842,-12.738 -3.182,-29.05 10.401,-36.404c13.582,-7.354 30.976,-2.983 38.818,9.755z" fill="rgb(57,171,186)"/>
      </g>
      <g>
       <g transform="matrix(1,0,0,1,44.2902,-18.9305)">
        <path d="m371.438,148.648c0,-10.985 9.398,-19.904 20.973,-19.904c11.575,0 20.973,8.919 20.973,19.904c5.787,-9.513 18.624,-12.778 28.649,-7.285c10.024,5.492 13.464,17.676 7.676,27.189c10.025,-5.493 22.862,-2.228 28.65,7.285c5.787,9.514 2.347,21.697 -7.677,27.19c11.575,0 20.973,8.918 20.973,19.903c0,10.986 -9.398,19.904 -20.973,19.904c10.024,5.493 13.464,17.676 7.677,27.19c-5.788,9.513 -18.625,12.778 -28.65,7.285c5.788,9.513 2.348,21.697 -7.676,27.189c-10.025,5.493 -22.862,2.228 -28.649,-7.285c0,10.985 -9.398,19.904 -20.973,19.904c-11.575,0 -20.973,-8.919 -20.973,-19.904c-5.787,9.513 -18.625,12.778 -28.649,7.285c-10.024,-5.492 -13.464,-17.676 -7.677,-27.189c-10.024,5.493 -22.861,2.228 -28.649,-7.285c-5.787,-9.514 -2.348,-21.697 7.677,-27.19c-11.575,0 -20.973,-8.918 -20.973,-19.904c0,-10.985 9.398,-19.903 20.973,-19.903c-10.025,-5.493 -13.464,-17.676 -7.677,-27.19c5.788,-9.513 18.625,-12.778 28.649,-7.285c-5.787,-9.513 -2.347,-21.697 7.677,-27.189c10.024,-5.493 22.862,-2.228 28.649,7.285z" fill="white"/>
       </g>
       <g transform="matrix(1,0,0,1,0.533068,8.18493)">
        <g transform="matrix(1.35372,0,0,1.35372,-754.115,-3761.3)">
         <text font-family="&#x27;SavoyeLetPlain&#x27;, &#x27;Savoye LET&#x27;" font-size="83.333px" x="842.873px" y="2923.25px">L</text>
        </g>
        <g transform="matrix(1.14772,0,0,1.14772,378.733,162.569)">
         <text font-family="&#x27;SavoyeLetPlain&#x27;, &#x27;Savoye LET&#x27;" font-size="98.291px" x="28.416px" y="67.623px">G</text>
        </g>
       </g>
      </g>
     </g>
    </symbol>
   </defs>
   <g class="layer">
    <title>Layer 1</title>
    <use id="svg_2" transform="matrix(1.31665 0 0 1.21591 -201.392 -119.275)" x="0" xlink:href="#svg_3" y="0"/>
    <g id="svg_1"/>
   </g>
  </symbol>
 </defs>
 <g class="layer">
  <title>Layer 1</title>
  <use id="svg_5" transform="matrix(3.00599 0 0 2.60064 -98.5142 -60.2819)" x="0" xlink:href="#svg_4" y="0"/>
  <g id="svg_6"/>
 </g>
</svg>